<mxfile host="app.diagrams.net" modified="2024-03-21T01:28:34.104Z" agent="Mozilla/5.0 (Windows NT 10.0; Win64; x64) AppleWebKit/537.36 (KHTML, like Gecko) Chrome/123.0.0.0 Safari/537.36" version="24.0.7" etag="-WJBUyevb_85GDRZV6Rj" type="github">
  <diagram name="PÃ¡gina-1" id="BZrEGgxluM-71whvwB0a">
    <mxGraphModel>
      <root>
        <mxCell id="0" />
        <mxCell id="1" parent="0" />
      </root>
    </mxGraphModel>
  </diagram>
</mxfile>
